<svg width="24" height="24" viewBox="0 0 24 24" fill="none" xmlns="http://www.w3.org/2000/svg">
<g clip-path="url(#clip0_677_16766)">
<path fill-rule="evenodd" clip-rule="evenodd" d="M7 4C6.45228 4 6 4.45228 6 5V19C6 20.6523 4.65228 22 3 22C2.44772 22 2 21.5523 2 21C2 20.4477 2.44772 20 3 20C3.54772 20 4 19.5477 4 19V5C4 3.34772 5.34772 2 7 2H19C20.6523 2 22 3.34772 22 5V19C22 20.6523 20.6523 22 19 22H9C8.44772 22 8 21.5523 8 21C8 20.4477 8.44772 20 9 20H19C19.5477 20 20 19.5477 20 19V5C20 4.45228 19.5477 4 19 4H7Z" fill="#F97807"/>
<path fill-rule="evenodd" clip-rule="evenodd" d="M8.85 15.1C8.85 14.6858 9.18579 14.35 9.6 14.35H16.4C16.8142 14.35 17.15 14.6858 17.15 15.1C17.15 15.5142 16.8142 15.85 16.4 15.85H9.6C9.18579 15.85 8.85 15.5142 8.85 15.1Z" fill="#F97807"/>
<path fill-rule="evenodd" clip-rule="evenodd" d="M16.0462 7.18598C16.33 7.48761 16.3157 7.96226 16.014 8.24615L12.614 11.4462C12.3188 11.724 11.8563 11.717 11.5697 11.4303L9.96967 9.83033C9.67678 9.53744 9.67678 9.06256 9.96967 8.76967C10.2626 8.47678 10.7374 8.47678 11.0303 8.76967L12.1158 9.85517L14.986 7.15385C15.2876 6.86996 15.7623 6.88435 16.0462 7.18598Z" fill="#F97807"/>
</g>
<defs>
<clipPath id="clip0_677_16766">
<rect width="24" height="24" fill="white"/>
</clipPath>
</defs>
</svg>
