<svg width="24" height="24" viewBox="0 0 24 24" fill="none" xmlns="http://www.w3.org/2000/svg">
<g clip-path="url(#clip0_677_18267)">
<path fill-rule="evenodd" clip-rule="evenodd" d="M20.161 8.94348C18.4478 4.25467 13.3177 1.83244 8.64474 3.53908C6.92008 4.17475 5.48442 5.25835 4.50667 6.59165C4.18007 7.03702 3.55426 7.13329 3.1089 6.80669C2.66353 6.48009 2.56726 5.85429 2.89386 5.40892C4.11587 3.74254 5.87977 2.42634 7.95456 1.66194L7.95707 1.66102C13.6838 -0.431422 19.9529 2.54634 22.0395 8.25709C24.1312 13.9816 21.1565 20.2482 15.4499 22.3372C10.8179 24.0985 5.74399 22.442 2.98653 18.5815C2.66552 18.1321 2.76961 17.5076 3.21902 17.1866C3.66844 16.8655 4.29299 16.9696 4.614 17.4191C6.85529 20.5569 10.978 21.9006 14.7443 20.4658L14.757 20.4609L14.7571 20.461C19.4463 18.7476 21.8686 13.6168 20.161 8.94348Z" fill="#F97807"/>
<path fill-rule="evenodd" clip-rule="evenodd" d="M0 12C0 11.5858 0.335786 11.25 0.75 11.25H4.75C5.16421 11.25 5.5 11.5858 5.5 12C5.5 12.4142 5.16421 12.75 4.75 12.75H0.75C0.335786 12.75 0 12.4142 0 12Z" fill="#F97807"/>
<path fill-rule="evenodd" clip-rule="evenodd" d="M2.75 9.25C3.16421 9.25 3.5 9.58579 3.5 10V14C3.5 14.4142 3.16421 14.75 2.75 14.75C2.33579 14.75 2 14.4142 2 14V10C2 9.58579 2.33579 9.25 2.75 9.25Z" fill="#F97807"/>
<path fill-rule="evenodd" clip-rule="evenodd" d="M7 10C7 8.48579 8.23579 7.25 9.75 7.25H14.75C15.1642 7.25 15.5 7.58579 15.5 8C15.5 8.41421 15.1642 8.75 14.75 8.75H9.75C9.06421 8.75 8.5 9.31421 8.5 10C8.5 10.6858 9.06421 11.25 9.75 11.25H13.75C15.2642 11.25 16.5 12.4858 16.5 14C16.5 15.5142 15.2642 16.75 13.75 16.75H8.75C8.33579 16.75 8 16.4142 8 16C8 15.5858 8.33579 15.25 8.75 15.25H13.75C14.4358 15.25 15 14.6858 15 14C15 13.3142 14.4358 12.75 13.75 12.75H9.75C8.23579 12.75 7 11.5142 7 10Z" fill="#F97807"/>
<path fill-rule="evenodd" clip-rule="evenodd" d="M11.75 5.25C12.1642 5.25 12.5 5.58579 12.5 6V8C12.5 8.41421 12.1642 8.75 11.75 8.75C11.3358 8.75 11 8.41421 11 8V6C11 5.58579 11.3358 5.25 11.75 5.25Z" fill="#F97807"/>
<path fill-rule="evenodd" clip-rule="evenodd" d="M11.75 15.25C12.1642 15.25 12.5 15.5858 12.5 16V18C12.5 18.4142 12.1642 18.75 11.75 18.75C11.3358 18.75 11 18.4142 11 18V16C11 15.5858 11.3358 15.25 11.75 15.25Z" fill="#F97807"/>
</g>
<defs>
<clipPath id="clip0_677_18267">
<rect width="24" height="24" fill="white"/>
</clipPath>
</defs>
</svg>
