<svg width="24" height="24" viewBox="0 0 24 24" fill="none" xmlns="http://www.w3.org/2000/svg">
<g clip-path="url(#clip0_677_18269)">
<path fill-rule="evenodd" clip-rule="evenodd" d="M8.3996 14.6C7.85189 14.6 7.3996 15.0523 7.3996 15.6V18C7.3996 18.5477 7.85189 19 8.3996 19H14.9996C15.5473 19 15.9996 18.5477 15.9996 18V15.6C15.9996 15.0523 15.5473 14.6 14.9996 14.6H8.3996ZM5.3996 15.6C5.3996 13.9477 6.74732 12.6 8.3996 12.6H14.9996C16.6519 12.6 17.9996 13.9477 17.9996 15.6V18C17.9996 19.6523 16.6519 21 14.9996 21H8.3996C6.74732 21 5.3996 19.6523 5.3996 18V15.6Z" fill="#F97807"/>
<path fill-rule="evenodd" clip-rule="evenodd" d="M11.7996 5C10.8055 5 9.9996 5.80589 9.9996 6.8C9.9996 7.79411 10.8055 8.6 11.7996 8.6C12.7937 8.6 13.5996 7.79411 13.5996 6.8C13.5996 5.80589 12.7937 5 11.7996 5ZM7.9996 6.8C7.9996 4.70132 9.70092 3 11.7996 3C13.8983 3 15.5996 4.70132 15.5996 6.8C15.5996 8.89868 13.8983 10.6 11.7996 10.6C9.70092 10.6 7.9996 8.89868 7.9996 6.8Z" fill="#F97807"/>
<path fill-rule="evenodd" clip-rule="evenodd" d="M3.70445 12.4437C3.846 12.833 3.64519 13.2633 3.25591 13.4048C2.61414 13.6382 2.32973 14.3514 2.5947 15.0183L3.29311 16.7144C3.45082 17.0975 3.26818 17.5358 2.88517 17.6935C2.50215 17.8512 2.06381 17.6686 1.90609 17.2856L1.20321 15.5786C0.670334 14.2464 1.18608 12.5614 2.7433 11.9952C3.13257 11.8536 3.56289 12.0544 3.70445 12.4437Z" fill="#F97807"/>
<path fill-rule="evenodd" clip-rule="evenodd" d="M3.7996 6.55C3.10925 6.55 2.5496 7.10964 2.5496 7.8C2.5496 8.49036 3.10925 9.05 3.7996 9.05C4.48996 9.05 5.0496 8.49036 5.0496 7.8C5.0496 7.10964 4.48996 6.55 3.7996 6.55ZM1.0496 7.8C1.0496 6.28122 2.28082 5.05 3.7996 5.05C5.31839 5.05 6.5496 6.28122 6.5496 7.8C6.5496 9.31878 5.31839 10.55 3.7996 10.55C2.28082 10.55 1.0496 9.31878 1.0496 7.8Z" fill="#F97807"/>
<path fill-rule="evenodd" clip-rule="evenodd" d="M19.6948 12.4437C19.8363 12.0544 20.2666 11.8536 20.6559 11.9952C22.2131 12.5614 22.7288 14.2464 22.196 15.5785L22.1931 15.5856L21.4931 17.2856C21.3354 17.6686 20.8971 17.8512 20.514 17.6935C20.131 17.5358 19.9484 17.0975 20.1061 16.7144L20.8045 15.0183C21.0695 14.3514 20.7851 13.6382 20.1433 13.4048C19.754 13.2633 19.5532 12.833 19.6948 12.4437Z" fill="#F97807"/>
<path fill-rule="evenodd" clip-rule="evenodd" d="M19.7996 6.55C19.1092 6.55 18.5496 7.10964 18.5496 7.8C18.5496 8.49036 19.1092 9.05 19.7996 9.05C20.49 9.05 21.0496 8.49036 21.0496 7.8C21.0496 7.10964 20.49 6.55 19.7996 6.55ZM17.0496 7.8C17.0496 6.28122 18.2808 5.05 19.7996 5.05C21.3184 5.05 22.5496 6.28122 22.5496 7.8C22.5496 9.31878 21.3184 10.55 19.7996 10.55C18.2808 10.55 17.0496 9.31878 17.0496 7.8Z" fill="#F97807"/>
</g>
<defs>
<clipPath id="clip0_677_18269">
<rect width="24" height="24" fill="white"/>
</clipPath>
</defs>
</svg>
