<svg width="24" height="24" viewBox="0 0 24 24" fill="none" xmlns="http://www.w3.org/2000/svg">
<g clip-path="url(#clip0_677_18271)">
<path fill-rule="evenodd" clip-rule="evenodd" d="M9.1 11.8C6.85228 11.8 5 13.6523 5 15.9C5 16.4523 4.55228 16.9 4 16.9C3.44772 16.9 3 16.4523 3 15.9C3 12.5477 5.74772 9.8 9.1 9.8C12.4523 9.8 15.2 12.5477 15.2 15.9C15.2 19.2523 12.4523 22 9.1 22H8C7.44772 22 7 21.5523 7 21C7 20.4477 7.44772 20 8 20H9.1C11.3477 20 13.2 18.1477 13.2 15.9C13.2 13.6523 11.3477 11.8 9.1 11.8Z" fill="#F97807"/>
<path fill-rule="evenodd" clip-rule="evenodd" d="M4 14.9C4.55228 14.9 5 15.3477 5 15.9V19C5 20.6523 3.65228 22 2 22C1.44772 22 1 21.5523 1 21C1 20.4477 1.44772 20 2 20C2.54772 20 3 19.5477 3 19V15.9C3 15.3477 3.44772 14.9 4 14.9Z" fill="#F97807"/>
<path fill-rule="evenodd" clip-rule="evenodd" d="M10.25 8C10.25 7.58579 10.5858 7.25 11 7.25H16C16.4142 7.25 16.75 7.58579 16.75 8C16.75 8.41421 16.4142 8.75 16 8.75H11C10.5858 8.75 10.25 8.41421 10.25 8Z" fill="#F97807"/>
<path fill-rule="evenodd" clip-rule="evenodd" d="M6.35 15.9C6.35 15.4858 6.68579 15.15 7.1 15.15H11C11.4142 15.15 11.75 15.4858 11.75 15.9C11.75 16.3142 11.4142 16.65 11 16.65H7.1C6.68579 16.65 6.35 16.3142 6.35 15.9Z" fill="#F97807"/>
<path fill-rule="evenodd" clip-rule="evenodd" d="M19 14.5C19.5523 14.5 20 14.9477 20 15.5V16C20 16.5477 20.4523 17 21 17C21.5523 17 22 17.4477 22 18C22 18.5523 21.5523 19 21 19C19.3477 19 18 17.6523 18 16V15.5C18 14.9477 18.4477 14.5 19 14.5Z" fill="#F97807"/>
<path fill-rule="evenodd" clip-rule="evenodd" d="M13.5 4C10.9966 4 8.91908 5.37206 7.77929 7.47628C7.51625 7.9619 6.90934 8.14234 6.42372 7.87929C5.9381 7.61625 5.75766 7.00934 6.02071 6.52372C7.48092 3.82794 10.2034 2 13.5 2C18.1436 2 22 5.73905 22 10.5C22 12.7694 21.0927 14.8072 19.7348 16.2783C19.3602 16.6841 18.7275 16.7094 18.3217 16.3348C17.9159 15.9602 17.8906 15.3275 18.2652 14.9217C19.3073 13.7928 20 12.2306 20 10.5C20 6.86095 17.0564 4 13.5 4Z" fill="#F97807"/>
</g>
<defs>
<clipPath id="clip0_677_18271">
<rect width="24" height="24" fill="white"/>
</clipPath>
</defs>
</svg>
