<svg width="24" height="24" viewBox="0 0 24 24" fill="none" xmlns="http://www.w3.org/2000/svg">
<g clip-path="url(#clip0_677_18265)">
<path fill-rule="evenodd" clip-rule="evenodd" d="M4 2H20C21.7 2 23 3.3 23 5V6.6C23 7.8 22.5 9 21.5 9.8C20.7 10.6 19.5 11 18.4 10.9C16.9 10.8 15.9 10.2 15.2 9.4C14.4 10.4 13.2 11 11.9 11C10.6 11 9.4 10.4 8.6 9.5C7.9 10.4 6.7 10.9 5.4 11C4.3 11 3.2 10.6 2.4 9.8C1.5 9 1 7.8 1 6.6V5C1 3.3 2.3 2 4 2ZM20.2 8.4C20.7 7.9 21 7.3 21 6.6V5C21 4.4 20.6 4 20 4H4C3.4 4 3 4.4 3 5V6.6C3 7.3 3.3 7.9 3.8 8.4C4.2 8.8 4.8 9 5.3 9C6.7 8.9 7.6 8 7.6 6.7C7.6 6.1 8 5.7 8.6 5.7C9.2 5.7 9.6 6.1 9.6 6.7C9.6 8 10.6 9 11.9 9C13.2 9 14.2 8 14.2 6.7C14.2 6.1 14.6 5.7 15.2 5.7C15.7 5.7 16.2 6.2 16.2 6.7C16.2 7.1 16.4 8.9 18.6 9C19.2 9 19.7 8.8 20.2 8.4Z" fill="#F97807"/>
<path d="M3 14C3 13.4 3.4 13 4 13C4.6 13 5 13.4 5 14V19C5 20.7 3.7 22 2 22C1.4 22 1 21.6 1 21C1 20.4 1.4 20 2 20C2.6 20 3 19.6 3 19V14Z" fill="#F97807"/>
<path d="M19 14C19 13.4 19.4 13 20 13C20.6 13 21 13.4 21 14V19C21 20.7 19.7 22 18 22H8C7.4 22 7 21.6 7 21C7 20.4 7.4 20 8 20H18C18.6 20 19 19.6 19 19V14Z" fill="#F97807"/>
<path d="M8.7 16.2H15.2C15.6 16.2 16 15.9 16 15.4C16 14.9 15.7 14.6 15.2 14.6H8.7C8.3 14.7 8 15 8 15.4C8 15.8 8.3 16.2 8.7 16.2Z" fill="#F97807"/>
</g>
<defs>
<clipPath id="clip0_677_18265">
<rect width="24" height="24" fill="white"/>
</clipPath>
</defs>
</svg>
