<svg width="33" height="33" viewBox="0 0 33 33" fill="none" xmlns="http://www.w3.org/2000/svg">
<path fill-rule="evenodd" clip-rule="evenodd" d="M29.6667 23V9.66667C29.6667 5.98477 26.6819 3 23 3H9.66667C5.98477 3 3 5.98477 3 9.66667V23C3 26.6819 5.98477 29.6667 9.66667 29.6667H23C26.6819 29.6667 29.6667 26.6819 29.6667 23ZM23 5.66667C25.2091 5.66667 27 7.45753 27 9.66667V23C27 25.2091 25.2091 27 23 27H19.9697V20.3333H23.2424L24.3333 16.3333H19.9697V13.3333C19.9697 13.0681 20.0846 12.8138 20.2892 12.6262C20.4938 12.4387 20.7713 12.3333 21.0606 12.3333H24.3333V8.33333H21.0606C19.614 8.33333 18.2266 8.86012 17.2037 9.7978C16.1807 10.7355 15.6061 12.0073 15.6061 13.3333V16.3333H12.3333V20.3333H15.6061V27H9.66667C7.45753 27 5.66667 25.2091 5.66667 23L5.66667 9.66667C5.66667 7.45753 7.45753 5.66667 9.66667 5.66667L23 5.66667Z" fill="#2A2A2A"/>
</svg>
