<svg width="144" height="144" viewBox="0 0 144 144" fill="none" xmlns="http://www.w3.org/2000/svg">
<g clip-path="url(#clip0_693_20354)">
<path d="M136 0H8C3.58172 0 0 3.58172 0 8V136C0 140.418 3.58172 144 8 144H136C140.418 144 144 140.418 144 136V8C144 3.58172 140.418 0 136 0Z" fill="white"/>
<path fill-rule="evenodd" clip-rule="evenodd" d="M7.75 8.75H43.59V44.59H7.75V8.75ZM79.43 8.75H89.67V13.87H84.55V18.99H89.67V13.87H94.79V29.23H89.67V34.35H94.79V44.59H89.67V39.47H84.55V34.35H74.31V24.11H79.43V29.23H84.55V24.11H79.43V18.99H74.31V13.87H79.43V8.75ZM84.55 39.47V44.59H79.43V39.47H84.55ZM99.91 8.75H135.75V44.59H99.91V8.75ZM48.71 13.87H53.83V24.11H48.71V13.87ZM64.07 18.99H58.95V24.11H53.83V29.23H48.71V49.71H38.47V54.83H43.59V59.95H17.99V70.19H23.11V65.07H43.59V59.95H58.95V54.83H48.71V49.71H64.07V54.83H69.19V59.95H64.07V70.19H58.95V65.07H53.83V70.19H38.47V75.31H33.35V85.55H43.59V80.43H48.71V90.67H53.83V95.79H48.71V106.03H53.83V116.27H48.71V121.39H58.95V131.63H53.83V126.51H48.71V136.75H58.95V131.63H69.19V136.75H74.31V121.39H79.43V116.27H84.55V126.51H79.43V131.63H84.55V126.51H89.67V136.75H99.91V126.51H110.15V121.39H115.27V131.63H110.15V136.75H120.39V126.51H125.51V136.75H135.75V121.39H130.63V126.51H125.51V121.39H115.27V111.15H120.39V116.27H130.63V111.15H135.75V100.91H125.51V106.03H120.39V100.91H115.27V90.67H110.15V85.55H120.39V80.43H135.75V65.07H130.63V70.19H120.39V80.43H115.27V75.31H110.15V70.19H115.27V65.07H110.15V59.95H115.27V49.71H99.91V59.95H94.79V54.83H69.19V49.71H74.31V39.47H69.19V44.59H64.07V34.35H69.19V24.11H64.07V18.99ZM64.07 18.99V13.87H69.19V18.99H64.07ZM94.79 65.07V59.95H89.67V65.07H84.55V59.95H74.31V65.07H69.19V70.19H64.07V85.55H58.95V90.67H64.07V95.79H58.95V100.91H53.83V106.03H58.95V111.15H69.19V121.39H74.31V111.15H69.19V106.03H58.95V100.91H64.07V95.79H69.19V80.43H79.43V75.31H89.67V80.43H84.55V85.55H79.43V100.91H84.55V106.03H79.43V111.15H84.55V116.27H89.67V80.43H94.79V85.55H99.91V80.43H105.03V85.55H110.15V80.43H105.03V70.19H99.91V65.07H94.79ZM94.79 70.19H89.67V67.63V65.07H94.79V70.19ZM94.79 70.19V75.31H99.91V70.19H94.79ZM79.43 75.31H74.31V70.19V65.07H84.55V70.19H79.43V75.31ZM110.15 59.95H105.03V54.83H110.15V59.95ZM94.79 121.39V126.51H89.67V121.39H94.79ZM94.79 121.39V116.27H105.03V121.39H94.79ZM43.59 80.43V75.31H38.47V80.43H43.59ZM48.71 80.43V75.31H53.83V70.19H58.95V80.43H48.71ZM53.83 29.23H58.95V44.59H53.83V29.23ZM125.51 54.83H120.39V49.71H130.63V59.95H125.51V54.83ZM17.99 49.71V54.83H7.75V49.71H17.99ZM23.11 49.71H28.23V54.83H23.11V49.71ZM7.75 59.95H12.87V70.19H7.75V59.95ZM23.11 75.31H28.23V85.55H17.99V80.43H23.11V75.31ZM12.87 85.55H17.99V90.67H28.23V95.79H7.75V90.67H12.87V85.55ZM12.87 85.55H7.75V80.43H12.87V85.55ZM38.47 90.67H43.59V95.79H38.47V90.67ZM130.63 90.67H135.75V95.79H130.63V90.67ZM7.75 100.91H43.59V136.75H7.75V100.91ZM12.87 13.87H38.47V39.47H12.87V13.87ZM105.03 13.87H130.63V39.47H105.03V13.87ZM94.79 95.79H110.15V111.15H94.79V95.79ZM12.87 106.03H38.47V131.63H12.87V106.03ZM17.99 26.67V34.35H33.35V18.99H17.99V26.67ZM110.15 26.67V34.35H125.51V18.99H110.15V26.67ZM99.91 106.03V103.47V100.91H105.03V106.03H99.91ZM17.99 118.83V126.51H33.35V111.15H17.99V118.83Z" fill="black"/>
</g>
<defs>
<clipPath id="clip0_693_20354">
<rect width="144" height="144" fill="white"/>
</clipPath>
</defs>
</svg>
