<svg width="32" height="32" viewBox="0 0 32 32" fill="CurrentColor" xmlns="http://www.w3.org/2000/svg">
<path fill-rule="evenodd" clip-rule="evenodd" d="M20.7346 18.4556C21.2513 17.4598 21.4409 16.3265 21.2763 15.2169C21.1085 14.085 20.581 13.0371 19.7719 12.228C18.9628 11.4188 17.9149 10.8914 16.783 10.7235C15.6733 10.559 14.54 10.7485 13.5443 11.2652C12.5486 11.7819 11.7411 12.5994 11.2367 13.6014C10.7324 14.6034 10.5568 15.739 10.7351 16.8465C10.9133 17.954 11.4362 18.9772 12.2294 19.7704C13.0227 20.5637 14.0458 21.0866 15.1534 21.2648C16.2609 21.443 17.3964 21.2675 18.3985 20.7631C19.4005 20.2588 20.218 19.4513 20.7346 18.4556ZM18.3677 17.2274C18.626 16.7295 18.7208 16.1629 18.6385 15.608C18.5546 15.0421 18.2908 14.5181 17.8863 14.1136C17.4817 13.709 16.9578 13.4453 16.3918 13.3614C15.837 13.2791 15.2703 13.3739 14.7725 13.6322C14.2746 13.8905 13.8709 14.2993 13.6187 14.8003C13.3665 15.3013 13.2787 15.8691 13.3679 16.4228C13.457 16.9766 13.7184 17.4882 14.115 17.8848C14.5117 18.2814 15.0232 18.5429 15.577 18.632C16.1308 18.7211 16.6986 18.6333 17.1996 18.3812C17.7006 18.129 18.1093 17.7252 18.3677 17.2274Z" fill="#2A2A2A"/>
<path d="M22.6673 7.99919C23.4037 7.99919 24.0007 8.59614 24.0007 9.33252C24.0007 10.0689 23.4037 10.6659 22.6673 10.6659L22.6536 10.6659C21.9172 10.6659 21.3202 10.0689 21.3202 9.33252C21.3202 8.59614 21.9172 7.99919 22.6536 7.99919L22.6673 7.99919Z" fill="#2A2A2A"/>
<path fill-rule="evenodd" clip-rule="evenodd" d="M22.6673 3.02279L9.33398 3.02279C5.65208 3.02279 2.66732 6.00755 2.66732 9.68945L2.66732 23.0228C2.66732 26.7047 5.65208 29.6895 9.33398 29.6895L22.6673 29.6895C26.3492 29.6895 29.334 26.7047 29.334 23.0228L29.334 9.68945C29.334 6.00755 26.3492 3.02279 22.6673 3.02279ZM9.33398 5.68945L22.6673 5.68945C24.8765 5.68945 26.6673 7.48031 26.6673 9.68945L26.6673 23.0228C26.6673 25.2319 24.8765 27.0228 22.6673 27.0228L9.33398 27.0228C7.12484 27.0228 5.33399 25.2319 5.33399 23.0228L5.33398 9.68945C5.33398 7.48031 7.12485 5.68945 9.33398 5.68945Z" fill="#2A2A2A"/>
</svg>
