<svg width="40" height="40" viewBox="0 0 40 40" fill="none" xmlns="http://www.w3.org/2000/svg">
<path d="M30.0568 21.1447C30.0934 18.3656 31.6221 15.7361 34.0472 14.2805C32.5173 12.1473 29.9548 10.7948 27.2888 10.7134C24.4453 10.422 21.6887 12.3746 20.2397 12.3746C18.7626 12.3746 16.5317 10.7423 14.1293 10.7906C10.9979 10.8894 8.07863 12.6275 6.55514 15.3003C3.28024 20.8359 5.72302 28.9714 8.86011 33.446C10.4297 35.6371 12.264 38.0846 14.6642 37.9978C17.013 37.9026 17.8902 36.5355 20.7253 36.5355C23.5342 36.5355 24.3572 37.9978 26.8061 37.9426C29.3264 37.9026 30.9143 35.7418 32.4288 33.5299C33.5565 31.9687 34.4243 30.2432 35 28.4174C32.0382 27.1944 30.0602 24.2843 30.0568 21.1447Z" fill="#464C58"/>
<path d="M25.4311 7.7707C26.8053 6.16014 27.4823 4.09003 27.3184 2C25.2189 2.21528 23.2796 3.1949 21.8869 4.74367C20.525 6.2569 19.8162 8.29058 19.9502 10.3007C22.0504 10.3218 24.1151 9.36878 25.4311 7.7707Z" fill="#464C58"/>
</svg>
