<svg width="40" height="41" viewBox="0 0 40 41" fill="none" xmlns="http://www.w3.org/2000/svg">
<path fill-rule="evenodd" clip-rule="evenodd" d="M24.9876 11.3818L10.0671 2.67193C9.46209 2.30719 8.756 2.09668 8.0004 2.09668C6.82523 2.09668 5.75689 2.6369 5.02044 3.47216L18.9598 17.4085L24.9876 11.3818ZM4 6.82821V32.3654L16.7712 19.5967L4 6.82821ZM4.59536 36.1465C5.30452 37.3004 6.57396 38.0967 8.00039 38.0967C8.73972 38.0967 9.43386 37.8955 10.0291 37.5423L10.0764 37.5144L25.6457 28.4693L18.9598 21.7848L4.59536 36.1465ZM28.4142 26.8609L33.8937 23.6776C35.1483 22.9958 36 21.6645 36 20.1292C36 18.605 35.1597 17.2802 33.9176 16.5962L33.9034 16.5864L27.7512 12.9951L21.1484 19.5967L28.4142 26.8609Z" fill="#464C58"/>
</svg>
