<svg width="17" height="17" viewBox="0 0 17 17" fill="none" xmlns="http://www.w3.org/2000/svg">
<g clip-path="url(#clip0_696_20375)">
<path opacity="0.3" d="M7.83368 14.1031L5.63368 15.2364C4.63368 15.7697 3.50034 14.9031 3.70034 13.8364L4.10034 11.3697C4.16701 10.9697 4.03368 10.5697 3.76701 10.2364L2.10034 8.43639C1.43368 7.70306 1.90034 6.43639 2.96701 6.30306L5.23368 5.96973C5.63368 5.83639 5.96701 5.56973 6.16701 5.16973L7.23368 2.96973C7.70035 1.96973 9.16701 1.96973 9.63368 2.96973L10.7003 5.16973C10.9003 5.56973 11.2337 5.83639 11.7003 5.90306L13.967 6.23639C15.0337 6.36973 15.4337 7.70306 14.767 8.43639L13.1003 10.2364C12.8337 10.5697 12.7003 10.9697 12.767 11.3697L13.167 13.8364C13.367 14.9031 12.2337 15.7697 11.2337 15.2364L9.03368 14.1031C8.70034 13.9031 8.23368 13.9031 7.83368 14.1031Z" fill="#FBA344"/>
<path fill-rule="evenodd" clip-rule="evenodd" d="M9.02932 3.2523C8.80205 2.76529 8.06484 2.76529 7.83757 3.2523L7.83332 3.26123L6.76311 5.46854C6.47788 6.03899 5.99848 6.41809 5.44426 6.60283C5.40719 6.61519 5.3691 6.62426 5.33044 6.62995L3.06378 6.96328L3.04947 6.96523C2.48253 7.0361 2.31581 7.68009 2.59183 7.98685L4.25595 9.78411C4.26686 9.79588 4.27733 9.80805 4.28736 9.82058C4.64621 10.2691 4.86134 10.8548 4.75799 11.4783C4.75789 11.4789 4.7578 11.4794 4.75771 11.48L4.35818 13.9438C4.35731 13.9492 4.35637 13.9545 4.35536 13.9599C4.25712 14.4839 4.8193 14.9157 5.31972 14.6488L5.32814 14.6444L7.53528 13.5074C8.09607 13.227 8.79776 13.1962 9.35545 13.5197L11.5388 14.6444L11.5472 14.6488C12.0476 14.9157 12.6098 14.4839 12.5115 13.9599C12.5112 13.9579 12.5108 13.956 12.5105 13.954C12.5098 13.9506 12.5093 13.9472 12.5087 13.9438L12.1092 11.48C12.1091 11.4795 12.109 11.4789 12.1089 11.4784C12.0055 10.8549 12.2207 10.2692 12.5795 9.82058C12.5896 9.80805 12.6 9.79588 12.6109 9.78411L14.2751 7.98681C14.4206 7.82535 14.4692 7.57272 14.3855 7.32643C14.3052 7.09003 14.1279 6.92903 13.8841 6.89856L13.8698 6.89662L11.6058 6.56368C11.6054 6.56361 11.6049 6.56355 11.6044 6.56348C10.9034 6.46288 10.3928 6.04647 10.1038 5.46852L10.1002 5.46125L9.03357 3.26123L9.02932 3.2523ZM10.2353 2.68358C9.52755 1.1771 7.33937 1.17709 6.63162 2.68355L5.5689 4.8754C5.46179 5.08776 5.29227 5.23526 5.0716 5.32034L2.87626 5.64319C1.31622 5.84415 0.553475 7.72681 1.60682 8.88549L3.25949 10.6704C3.42298 10.8823 3.47107 11.0894 3.44252 11.2608L3.44204 11.2637L3.04323 13.723C2.74964 15.3267 4.44685 16.6209 5.94256 15.8277L8.1347 14.6984C8.36571 14.5842 8.58524 14.6122 8.69045 14.6754C8.70278 14.6828 8.71535 14.6898 8.72814 14.6964L10.9243 15.8277C12.42 16.6209 14.1172 15.3267 13.8237 13.723L13.4249 11.2637L13.4244 11.2608C13.3958 11.0894 13.4439 10.8823 13.6074 10.6704L15.256 8.88998L15.2601 8.88549C15.78 8.31354 15.8641 7.53379 15.648 6.89766C15.429 6.25279 14.8759 5.68203 14.0573 5.57652L11.7971 5.24414L11.7944 5.24374C11.5639 5.21082 11.4087 5.09502 11.298 4.87541L10.2353 2.68358Z" fill="#FBA344"/>
</g>
<defs>
<clipPath id="clip0_696_20375">
<rect width="16" height="16" fill="white" transform="translate(0.5 0.90332)"/>
</clipPath>
</defs>
</svg>
