<svg width="40" height="41" viewBox="0 0 40 41" fill="none" xmlns="http://www.w3.org/2000/svg">
<path fill-rule="evenodd" clip-rule="evenodd" d="M9.43602 4.19863C10.0825 4.19688 10.7289 4.19513 11.3753 4.19415C12.9947 4.1917 14.6142 4.19407 16.2359 4.21364C18.4606 4.23322 20.6011 4.65409 22.4612 6.05348C24.3401 7.47244 25.2841 9.42962 25.4057 11.8272C25.5178 14.0682 25.1253 16.2016 23.9475 18.1196C22.8913 19.8321 21.377 20.9672 19.6477 21.8186C19.4982 21.8675 19.3579 21.936 19.1897 22.024C20.0703 24.967 20.9583 27.9136 21.8467 30.8616C22.3822 32.6384 22.9179 34.4159 23.4522 36.1934H14.3853C13.8517 33.3157 13.3133 30.4282 12.777 27.5524C12.571 26.448 12.3654 25.3453 12.1605 24.2456H12.0577C11.8099 26.1962 11.5531 28.1514 11.2961 30.1078C11.0297 32.1362 10.763 34.1659 10.5061 36.1934H2C2.73969 30.3316 3.47654 24.476 4.21368 18.6182C4.81792 13.8165 5.42235 9.01324 6.02868 4.2039H6.51467C7.48913 4.2039 8.46274 4.20126 9.43602 4.19863ZM16.6191 13.3635C16.5782 11.8479 15.6716 10.8793 14.3309 10.8641C14.1981 10.8626 14.0606 10.8711 13.9197 10.8887C13.8544 10.8963 13.7884 10.9052 13.7214 10.917C13.5876 11.9914 13.452 13.0676 13.3161 14.1457C13.1389 15.552 12.9613 16.9615 12.7867 18.374C13.8137 18.542 14.9563 18.0671 15.6322 17.2364C15.6705 17.1904 15.707 17.1432 15.7425 17.0951C15.8128 16.9997 15.8791 16.9017 15.9369 16.7985C16.5164 15.7318 16.6472 14.5672 16.6191 13.3635Z" fill="#464C58"/>
<path fill-rule="evenodd" clip-rule="evenodd" d="M24.3507 32.5276C24.1143 33.3941 23.8759 34.268 23.664 35.1466L22.432 31.0396C21.3352 27.3829 20.0297 23.0306 19.8538 22.4476C21.6526 21.5619 23.2991 20.305 24.3867 18.5348C26.5135 15.0712 26.6132 10.0693 24.0505 6.92307L24.7561 4.81035C24.8963 4.38955 25.0739 4.28183 25.4758 4.29162C27.622 4.30645 30.2291 4.3044 32.5985 4.30254C33.3559 4.30194 34.0892 4.30137 34.7752 4.30137C34.9428 4.29162 35.1198 4.29162 35.3522 4.29162H35.3548L35.4588 5.54247C36.3115 15.7933 37.1557 25.9432 38 36.1932H29.6529V31.6238H24.596C24.5154 31.9237 24.433 32.2257 24.3507 32.5276ZM29.3164 13.6567C29.3445 13.6567 29.3724 13.6569 29.4004 13.6666L29.402 13.7471C29.4763 17.5075 29.5505 21.2681 29.6155 25.0672H26.2691C26.8627 22.8319 27.4565 20.6132 28.0484 18.4014L28.0513 18.3903C28.4742 16.8101 28.8962 15.2334 29.3164 13.6567Z" fill="#464C58"/>
</svg>
