<svg width="176" height="30" viewBox="0 0 176 30" fill="none" xmlns="http://www.w3.org/2000/svg">
<path d="M91.3821 24.649C88.2194 24.649 86.6709 23.3176 85.9175 21.9033H86.6173C92.4112 21.9033 98.2782 19.2843 98.2782 14.2757C98.2782 13.9733 98.2635 13.688 98.2318 13.4125C97.7027 8.60131 92.7599 7.97949 91.5065 7.97949C88.8778 7.97949 80.5869 8.64033 80.5869 18.9625C80.5869 26.0512 86.1833 29.2797 91.3846 29.2797C94.54 29.2797 97.7124 28.2141 99.9412 26.1438L97.1882 22.352C95.2642 24.6076 91.5943 24.6466 91.387 24.6466L91.3821 24.649Z" fill="#FF5C1C"/>
<path d="M111.854 24.649C108.691 24.649 107.142 23.3176 106.389 21.9033H107.089C112.883 21.9033 118.75 19.2843 118.75 14.2757C118.75 13.9733 118.735 13.688 118.703 13.4125C118.174 8.60131 113.231 7.97949 111.978 7.97949C109.349 7.97949 101.058 8.64033 101.058 18.9625C101.058 26.0512 106.655 29.2797 111.856 29.2797C115.011 29.2797 118.184 28.2141 120.413 26.1438L117.66 22.352C115.736 24.6076 112.066 24.6466 111.858 24.6466L111.854 24.649Z" fill="#FF5C1C"/>
<path d="M75.4496 15.5438C74.662 14.9049 73.7305 14.3709 72.6502 13.9246C71.5675 13.4808 70.3654 13.1029 69.0461 12.8029L65.8395 12.0568C64.3764 11.7251 63.2181 11.3277 62.3622 10.8546C61.5063 10.3864 61.0771 9.64022 61.0771 8.61605C61.0771 8.09177 61.2283 7.64065 61.5405 7.26512C61.8526 6.8896 62.2866 6.59942 62.8475 6.39215C63.4083 6.18244 64.057 6.07758 64.7861 6.07758C66.4174 6.07758 67.9927 6.4653 69.507 7.24074C71.0238 8.01618 72.2503 9.12813 73.1745 10.562L77.2663 6.03612C76.0861 4.37307 74.4669 3.07335 72.3991 2.1321C70.3337 1.19084 67.9781 0.717773 65.3396 0.717773C63.4254 0.717773 61.6721 1.03234 60.0676 1.65171C58.4655 2.27353 57.1975 3.2026 56.2538 4.4316C55.3101 5.66304 54.8419 7.18953 54.8419 9.0184C54.8419 10.3474 55.0736 11.474 55.5369 12.403C56.0002 13.3321 56.6366 14.1075 57.4511 14.7269C58.268 15.3536 59.1824 15.8437 60.1944 16.2022C61.2015 16.5607 62.2598 16.8508 63.3547 17.0752L66.0907 17.6555C67.3587 17.9067 68.4048 18.1749 69.2339 18.4651C70.0679 18.7553 70.6872 19.1138 71.092 19.5429C71.5017 19.9697 71.7041 20.5452 71.7041 21.2645C71.7041 21.9034 71.5188 22.4155 71.1554 22.8032C70.7848 23.1909 70.2873 23.4689 69.6558 23.6518C69.0242 23.8274 68.3024 23.92 67.4855 23.92C66.3565 23.92 65.1933 23.7371 63.9838 23.3787C62.7743 23.0202 61.6575 22.4716 60.6333 21.7376C59.6092 21.0036 58.7752 20.0575 58.1266 18.8943L54.1226 23.4592C55.0199 24.815 56.1465 25.9269 57.5121 26.7804C58.8727 27.6339 60.3822 28.2679 62.0428 28.6653C63.6985 29.0701 65.4274 29.2701 67.227 29.2701L67.2221 29.275C69.2705 29.275 71.0993 28.9628 72.7014 28.341C74.3035 27.7192 75.5715 26.8023 76.4982 25.5831C77.4248 24.3638 77.8857 22.8715 77.8857 21.0987C77.8857 19.8575 77.6784 18.7748 77.2541 17.8628C76.8322 16.9508 76.2299 16.1754 75.4423 15.5389L75.4496 15.5438Z" fill="#FF5C1C"/>
<path d="M149.043 8.10155C147.47 8.10155 146.194 8.46001 145.229 9.1623C144.263 9.86215 143.539 10.7863 143.059 11.9202C142.715 12.7444 142.459 13.593 142.288 14.4733C142.256 12.464 141.747 10.9058 140.754 9.80607C139.73 8.67217 138.272 8.10155 136.392 8.10155C134.819 8.10155 133.551 8.45514 132.578 9.1623C131.612 9.86215 130.888 10.7863 130.408 11.9202C130.071 12.7274 129.82 13.5565 129.649 14.4148V8.52342H123.619V28.8629H129.649V17.6141C129.649 16.5095 129.759 15.5902 129.986 14.8733C130.213 14.1563 130.559 13.615 131.039 13.2541C131.515 12.8956 132.161 12.7127 132.978 12.7127C134.209 12.7127 135.068 13.0541 135.548 13.732C136.028 14.4099 136.265 15.4122 136.265 16.7411V28.8629H142.295V17.5385L142.3 17.6117C142.3 16.507 142.41 15.5877 142.637 14.8708C142.863 14.1539 143.21 13.6125 143.69 13.2516C144.166 12.8932 144.812 12.7103 145.629 12.7103C146.86 12.7103 147.719 13.0517 148.199 13.7296C148.679 14.4075 148.916 15.4097 148.916 16.7387V28.8604H154.944V14.6587C154.944 12.5567 154.429 10.9375 153.405 9.80362C152.381 8.66973 150.923 8.09912 149.043 8.09912V8.10155Z" fill="#FF5C1C"/>
<path d="M174.434 19.3504C173.393 18.4091 171.733 17.6361 169.457 17.0265L167.138 16.4047C165.761 16.0462 164.812 15.7146 164.29 15.4073C163.768 15.1001 163.51 14.6831 163.51 14.1588C163.51 13.6638 163.717 13.281 164.142 13.02C164.563 12.7591 165.141 12.6274 165.87 12.6274C167.075 12.6274 168.285 12.9079 169.492 13.459C170.696 14.0125 171.806 14.7977 172.818 15.8243L175.515 11.8398C174.781 10.9498 173.635 10.1182 172.079 9.32574C170.523 8.53323 168.614 8.14062 166.368 8.14062C163.839 8.14062 161.813 8.69417 160.298 9.7988C158.782 10.9034 158.026 12.4714 158.026 14.488C158.026 15.678 158.296 16.6583 158.848 17.4166C159.391 18.175 160.155 18.7895 161.123 19.2626C162.096 19.7308 163.193 20.1356 164.432 20.4648L167.214 21.1305C168.309 21.4109 169.14 21.6889 169.721 21.962C170.294 22.2351 170.582 22.635 170.582 23.1642C170.582 23.6933 170.35 24.0884 169.887 24.3493C169.423 24.6126 168.787 24.7419 167.972 24.7419C166.931 24.7419 165.929 24.5712 164.958 24.2225C163.993 23.8811 163.091 23.4251 162.261 22.8545C161.435 22.2912 160.723 21.7157 160.133 21.1329L157.35 25.1613C157.97 25.966 158.796 26.678 159.838 27.2974C160.874 27.9192 162.083 28.4021 163.459 28.7508C164.837 29.0995 166.283 29.2702 167.799 29.2702L167.824 29.2653C169.455 29.2653 170.872 29.0263 172.081 28.541C173.286 28.0558 174.244 27.3511 174.946 26.422C175.646 25.4978 176 24.381 176 23.0837C176 21.5328 175.478 20.2868 174.437 19.3455L174.434 19.3504Z" fill="#FF5C1C"/>
<path d="M44.5951 24.649C43.4856 24.649 40.4424 24.4076 39.0939 21.9033H39.8303C45.6242 21.9033 51.4912 19.2844 51.4912 14.2757C51.4912 8.67448 46.0436 7.97951 44.7195 7.97951C40.8301 7.97951 34.6973 9.39872 33.8828 17.2702H30.4348V1.05176H22.2732C22.2732 1.05176 17.306 12.7907 16.2282 15.9241L15.2162 18.8649L14.2042 15.9241C13.1532 12.8638 8.15919 1.05176 8.15919 1.05176H0V28.8676H6.03039V20.5621C6.03039 17.0312 5.40858 8.00877 5.40858 8.00877L7.17161 12.637C7.97387 14.7439 8.83466 16.8288 9.75397 18.8869L12.0559 24.0516H18.3862L20.6882 18.8869C21.605 16.8264 22.4658 14.7439 23.2705 12.637L25.0336 8.00877C25.0336 8.00877 24.4117 16.5923 24.4117 20.5621V28.8676H30.4421V21.9033H34.1657C35.4801 26.951 40.1864 29.2822 44.6025 29.2822C47.7579 29.2822 50.9303 28.2166 53.1591 26.1463L50.4061 22.3544C48.4821 24.61 44.8122 24.649 44.6049 24.649H44.5951ZM44.4879 12.6151C45.3438 12.6151 46.8581 12.9101 46.8581 14.2781C46.8581 16.5679 43.0296 17.2726 39.8303 17.2726H38.5452C39.0183 14.0684 40.7448 12.6151 44.4879 12.6151Z" fill="#FF5C1C"/>
</svg>
